<?xml version="1.0" standalone="no"?><!DOCTYPE svg PUBLIC "-//W3C//DTD SVG 1.1//EN" "http://www.w3.org/Graphics/SVG/1.1/DTD/svg11.dtd"><svg t="1555726291272" class="icon" style="" viewBox="0 0 1024 1024" version="1.1" xmlns="http://www.w3.org/2000/svg" p-id="15268" xmlns:xlink="http://www.w3.org/1999/xlink" width="200" height="200"><defs><style type="text/css"></style></defs><path d="M512 102.4c225.28 0 409.6 184.32 409.6 409.6S737.28 921.6 512 921.6 102.4 737.28 102.4 512 286.72 102.4 512 102.4m0-51.2C257.706667 51.2 51.2 257.706667 51.2 512s206.506667 460.8 460.8 460.8 460.8-206.506667 460.8-460.8S766.293333 51.2 512 51.2z" fill="#515151" p-id="15269"></path><path d="M711.68 588.8c-22.186667 88.746667-104.106667 155.306667-199.68 155.306667s-177.493333-66.56-199.68-155.306667h399.36m58.026667-51.2H254.293333c0 141.653333 116.053333 257.706667 257.706667 257.706667s257.706667-116.053333 257.706667-257.706667z" fill="#515151" p-id="15270"></path><path d="M351.573333 361.813333m-68.266666 0a68.266667 68.266667 0 1 0 136.533333 0 68.266667 68.266667 0 1 0-136.533333 0Z" fill="#515151" p-id="15271"></path><path d="M675.84 361.813333m-68.266667 0a68.266667 68.266667 0 1 0 136.533334 0 68.266667 68.266667 0 1 0-136.533334 0Z" fill="#515151" p-id="15272"></path></svg>