<?xml version="1.0" standalone="no"?><!DOCTYPE svg PUBLIC "-//W3C//DTD SVG 1.1//EN" "http://www.w3.org/Graphics/SVG/1.1/DTD/svg11.dtd"><svg t="1555726065953" class="icon" style="" viewBox="0 0 1024 1024" version="1.1" xmlns="http://www.w3.org/2000/svg" p-id="5196" xmlns:xlink="http://www.w3.org/1999/xlink" width="200" height="200"><defs><style type="text/css"></style></defs><path d="M582.1 256.4c133.8 141.7 133.8 371.1 0 511.1l-39.8-42.2c111.5-118.1 111.5-308.7 0-426.8l39.8-42.1z m-79.7 86.1c89.2 94.5 89.2 246.3 0 340.8L462.6 641c66.9-70.9 66.9-185.6 0-256.4l39.8-42.1z m-81.2 84.3c44.6 47.2 44.6 124.8 1.6 172.1l-81.2-86 79.6-86.1z" p-id="5197" fill="#515151"></path><path d="M512 959.2C265.4 959.2 64.8 758.6 64.8 512S265.4 64.8 512 64.8 959.2 265.4 959.2 512 758.6 959.2 512 959.2z m0-851.8c-223.1 0-404.6 181.5-404.6 404.6S288.9 916.6 512 916.6 916.6 735.1 916.6 512 735.1 107.4 512 107.4z" p-id="5198" fill="#515151"></path></svg>